<svg xmlns="http://www.w3.org/2000/svg" viewBox="0 0 1024 1024">
<defs>
  <linearGradient id="bg" x1="0" y1="0" x2="1" y2="1">
    <stop offset="0" stop-color="#5B5BF0"/>
    <stop offset="1" stop-color="#2563EB"/>
  </linearGradient>
  <linearGradient id="sheen" x1="0" y1="0" x2="0" y2="1">
    <stop offset="0" stop-color="#ffffff" stop-opacity="0.16"/>
    <stop offset="0.5" stop-color="#ffffff" stop-opacity="0"/>
  </linearGradient>
</defs>
<rect width="1024" height="1024" rx="224" fill="url(#bg)"/>
<rect width="1024" height="1024" rx="224" fill="url(#sheen)"/>
<path d="M 660.38 274.55 A 280.0 280.0 0 1 1 363.62 274.55" fill="none" stroke="#A5B4FC" stroke-width="40.3" stroke-linecap="round"/>
<path d="M 414.91 242.50 L 344.93 332.07 L 303.73 266.13 Z" fill="#A5B4FC"/>
<g fill="#FFFFFF" transform="translate(323.00,708.56) scale(0.56000,-0.56000)">
<path transform="translate(0.0,0)" d="M420 0 274 265H233V0H62V702H349Q432 702 490.5 673.0Q549 644 578.0 593.5Q607 543 607 481Q607 411 567.5 356.0Q528 301 451 278L613 0ZM233 386H339Q386 386 409.5 409.0Q433 432 433 474Q433 514 409.5 537.0Q386 560 339 560H233Z"/>
</g>
</svg>