<svg xmlns="http://www.w3.org/2000/svg" viewBox="0 0 1371 420">
<defs>
  <linearGradient id="bg" x1="0" y1="0" x2="1" y2="1">
    <stop offset="0" stop-color="#5B5BF0"/>
    <stop offset="1" stop-color="#2563EB"/>
  </linearGradient>
  <linearGradient id="sheen" x1="0" y1="0" x2="0" y2="1">
    <stop offset="0" stop-color="#ffffff" stop-opacity="0.16"/>
    <stop offset="0.5" stop-color="#ffffff" stop-opacity="0"/>
  </linearGradient>
</defs>
<g transform="translate(60,60)">
  <rect width="300" height="300" rx="72" fill="url(#bg)"/>
  <rect width="300" height="300" rx="72" fill="url(#sheen)"/>
  <path d="M 195.04 77.92 A 85.0 85.0 0 1 1 104.96 77.92" fill="none" stroke="#A5B4FC" stroke-width="12.2" stroke-linecap="round"/>
<path d="M 120.53 68.19 L 99.28 95.38 L 86.78 75.36 Z" fill="#A5B4FC"/>
<g fill="#FFFFFF" transform="translate(92.62,209.67) scale(0.17000,-0.17000)">
<path transform="translate(0.0,0)" d="M420 0 274 265H233V0H62V702H349Q432 702 490.5 673.0Q549 644 578.0 593.5Q607 543 607 481Q607 411 567.5 356.0Q528 301 451 278L613 0ZM233 386H339Q386 386 409.5 409.0Q433 432 433 474Q433 514 409.5 537.0Q386 560 339 560H233Z"/>
</g>
</g>
<g fill="#0F172A" transform="translate(387.40,319.80) scale(0.30000,-0.30000)">
<path transform="translate(0.0,0)" d="M420 0 274 265H233V0H62V702H349Q432 702 490.5 673.0Q549 644 578.0 593.5Q607 543 607 481Q607 411 567.5 356.0Q528 301 451 278L613 0ZM233 386H339Q386 386 409.5 409.0Q433 432 433 474Q433 514 409.5 537.0Q386 560 339 560H233Z"/>
<path transform="translate(652.0,0)" d="M585 238H198Q202 186 231.5 158.5Q261 131 304 131Q368 131 393 185H575Q561 130 524.5 86.0Q488 42 433.0 17.0Q378 -8 310 -8Q228 -8 164.0 27.0Q100 62 64.0 127.0Q28 192 28 279Q28 366 63.5 431.0Q99 496 163.0 531.0Q227 566 310 566Q391 566 454.0 532.0Q517 498 552.5 435.0Q588 372 588 288Q588 264 585 238ZM413 333Q413 377 383.0 403.0Q353 429 308 429Q265 429 235.5 404.0Q206 379 199 333Z"/>
<path transform="translate(1268.0,0)" d="M308 566Q413 566 483.5 511.0Q554 456 576 356H394Q371 420 305 420Q258 420 230.0 383.5Q202 347 202 279Q202 211 230.0 174.5Q258 138 305 138Q371 138 394 202H576Q554 104 483.0 48.0Q412 -8 308 -8Q226 -8 162.5 27.0Q99 62 63.5 127.0Q28 192 28 279Q28 366 63.5 431.0Q99 496 162.5 531.0Q226 566 308 566Z"/>
<path transform="translate(1873.0,0)" d="M274 566Q333 566 377.5 542.0Q422 518 446 479V558H617V0H446V79Q421 40 376.5 16.0Q332 -8 273 -8Q205 -8 149.0 27.5Q93 63 60.5 128.5Q28 194 28 280Q28 366 60.5 431.0Q93 496 149.0 531.0Q205 566 274 566ZM324 417Q273 417 237.5 380.5Q202 344 202 280Q202 216 237.5 178.5Q273 141 324 141Q375 141 410.5 178.0Q446 215 446 279Q446 343 410.5 380.0Q375 417 324 417Z"/>
<path transform="translate(2552.0,0)" d="M233 740V0H62V740Z"/>
<path transform="translate(2847.0,0)" d="M233 740V0H62V740Z"/>
</g>
</svg>